<svg width="84px" height="24px" viewBox="0 0 84 24" fill="none" xmlns="http://www.w3.org/2000/svg">
<path d="M7 10.75H5C2.58 10.75 1.25 9.42 1.25 7V5C1.25 2.58 2.58 1.25 5 1.25H7C9.42 1.25 10.75 2.58 10.75 5V7C10.75 9.42 9.42 10.75 7 10.75ZM5 2.75C3.42 2.75 2.75 3.42 2.75 5V7C2.75 8.58 3.42 9.25 5 9.25H7C8.58 9.25 9.25 8.58 9.25 7V5C9.25 3.42 8.58 2.75 7 2.75H5Z" fill="#787486"/>
<path d="M19 10.75H17C14.58 10.75 13.25 9.42 13.25 7V5C13.25 2.58 14.58 1.25 17 1.25H19C21.42 1.25 22.75 2.58 22.75 5V7C22.75 9.42 21.42 10.75 19 10.75ZM17 2.75C15.42 2.75 14.75 3.42 14.75 5V7C14.75 8.58 15.42 9.25 17 9.25H19C20.58 9.25 21.25 8.58 21.25 7V5C21.25 3.42 20.58 2.75 19 2.75H17Z" fill="#787486"/>
<path d="M19 22.75H17C14.58 22.75 13.25 21.42 13.25 19V17C13.25 14.58 14.58 13.25 17 13.25H19C21.42 13.25 22.75 14.58 22.75 17V19C22.75 21.42 21.42 22.75 19 22.75ZM17 14.75C15.42 14.75 14.75 15.42 14.75 17V19C14.75 20.58 15.42 21.25 17 21.25H19C20.58 21.25 21.25 20.58 21.25 19V17C21.25 15.42 20.58 14.75 19 14.75H17Z" fill="#787486"/>
<path d="M7 22.75H5C2.58 22.75 1.25 21.42 1.25 19V17C1.25 14.58 2.58 13.25 5 13.25H7C9.42 13.25 10.75 14.58 10.75 17V19C10.75 21.42 9.42 22.75 7 22.75ZM5 14.75C3.42 14.75 2.75 15.42 2.75 17V19C2.75 20.58 3.42 21.25 5 21.25H7C8.58 21.25 9.25 20.58 9.25 19V17C9.25 15.42 8.58 14.75 7 14.75H5Z" fill="#787486"/>
<path d="M39.2784 17V5.36364H41.0341V10.4205H46.8352V5.36364H48.5966V17H46.8352V11.9261H41.0341V17H39.2784ZM54.6932 17.1761C53.875 17.1761 53.161 16.9886 52.5511 16.6136C51.9413 16.2386 51.4678 15.714 51.1307 15.0398C50.7936 14.3655 50.625 13.5777 50.625 12.6761C50.625 11.7708 50.7936 10.9792 51.1307 10.3011C51.4678 9.62311 51.9413 9.09659 52.5511 8.72159C53.161 8.34659 53.875 8.15909 54.6932 8.15909C55.5114 8.15909 56.2254 8.34659 56.8352 8.72159C57.4451 9.09659 57.9186 9.62311 58.2557 10.3011C58.5928 10.9792 58.7614 11.7708 58.7614 12.6761C58.7614 13.5777 58.5928 14.3655 58.2557 15.0398C57.9186 15.714 57.4451 16.2386 56.8352 16.6136C56.2254 16.9886 55.5114 17.1761 54.6932 17.1761ZM54.6989 15.75C55.2292 15.75 55.6686 15.6098 56.017 15.3295C56.3655 15.0492 56.6231 14.6761 56.7898 14.2102C56.9602 13.7443 57.0455 13.2311 57.0455 12.6705C57.0455 12.1136 56.9602 11.6023 56.7898 11.1364C56.6231 10.6667 56.3655 10.2898 56.017 10.0057C55.6686 9.72159 55.2292 9.57955 54.6989 9.57955C54.1648 9.57955 53.7216 9.72159 53.3693 10.0057C53.0208 10.2898 52.7614 10.6667 52.5909 11.1364C52.4242 11.6023 52.3409 12.1136 52.3409 12.6705C52.3409 13.2311 52.4242 13.7443 52.5909 14.2102C52.7614 14.6761 53.0208 15.0492 53.3693 15.3295C53.7216 15.6098 54.1648 15.75 54.6989 15.75ZM60.6577 17V8.27273H62.2884V9.69318H62.3963C62.5781 9.21212 62.8755 8.83712 63.2884 8.56818C63.7012 8.29545 64.1955 8.15909 64.7713 8.15909C65.3546 8.15909 65.8433 8.29545 66.2372 8.56818C66.6349 8.84091 66.9285 9.21591 67.1179 9.69318H67.2088C67.4171 9.22727 67.7486 8.85606 68.2031 8.57955C68.6577 8.29924 69.1993 8.15909 69.8281 8.15909C70.6198 8.15909 71.2656 8.4072 71.7656 8.90341C72.2694 9.39962 72.5213 10.1477 72.5213 11.1477V17H70.8224V11.3068C70.8224 10.7159 70.6615 10.2879 70.3395 10.0227C70.0175 9.75758 69.633 9.625 69.1861 9.625C68.633 9.625 68.2031 9.79545 67.8963 10.1364C67.5895 10.4735 67.4361 10.9072 67.4361 11.4375V17H65.7429V11.1989C65.7429 10.7254 65.5952 10.3447 65.2997 10.0568C65.0043 9.76894 64.6198 9.625 64.1463 9.625C63.8243 9.625 63.527 9.71023 63.2543 9.88068C62.9853 10.0473 62.7675 10.2803 62.6009 10.5795C62.438 10.8788 62.3565 11.2254 62.3565 11.6193V17H60.6577ZM78.5597 17.1761C77.6998 17.1761 76.9593 16.9924 76.3381 16.625C75.7206 16.2538 75.2434 15.733 74.9062 15.0625C74.5729 14.3883 74.4062 13.5985 74.4062 12.6932C74.4062 11.7992 74.5729 11.0114 74.9062 10.3295C75.2434 9.64773 75.7131 9.11553 76.3153 8.73295C76.9214 8.35038 77.6297 8.15909 78.4403 8.15909C78.9328 8.15909 79.41 8.24053 79.8722 8.40341C80.3343 8.56629 80.7491 8.82197 81.1165 9.17045C81.4839 9.51894 81.7737 9.97159 81.9858 10.5284C82.1979 11.0814 82.304 11.7538 82.304 12.5455V13.1477H75.3665V11.875H80.6392C80.6392 11.428 80.5483 11.0322 80.3665 10.6875C80.1847 10.339 79.929 10.0644 79.5994 9.86364C79.2737 9.66288 78.8911 9.5625 78.4517 9.5625C77.9744 9.5625 77.5578 9.67992 77.2017 9.91477C76.8494 10.1458 76.5767 10.4489 76.3835 10.8239C76.1941 11.1951 76.0994 11.5985 76.0994 12.0341V13.0284C76.0994 13.6117 76.2017 14.108 76.4062 14.517C76.6146 14.9261 76.9044 15.2386 77.2756 15.4545C77.6468 15.6667 78.0805 15.7727 78.5767 15.7727C78.8987 15.7727 79.1922 15.7273 79.4574 15.6364C79.7225 15.5417 79.9517 15.4015 80.1449 15.2159C80.3381 15.0303 80.4858 14.8011 80.5881 14.5284L82.196 14.8182C82.0672 15.2917 81.8362 15.7064 81.5028 16.0625C81.1733 16.4148 80.7585 16.6894 80.2585 16.8864C79.7623 17.0795 79.196 17.1761 78.5597 17.1761Z" fill="#787486"/>
</svg>
