<svg width="111" height="24" viewBox="0 0 111 24" fill="none" xmlns="http://www.w3.org/2000/svg">
<path d="M9.16 10.87C9.06 10.86 8.94 10.86 8.83 10.87C6.45 10.79 4.56 8.84 4.56 6.44C4.56 3.99 6.54 2 9 2C11.45 2 13.44 3.99 13.44 6.44C13.43 8.84 11.54 10.79 9.16 10.87Z" stroke="#787486" stroke-width="1.5" stroke-linecap="round" stroke-linejoin="round"/>
<path d="M16.41 4C18.35 4 19.91 5.57 19.91 7.5C19.91 9.39 18.41 10.93 16.54 11C16.46 10.99 16.37 10.99 16.28 11" stroke="#787486" stroke-width="1.5" stroke-linecap="round" stroke-linejoin="round"/>
<path d="M4.15997 14.56C1.73997 16.18 1.73997 18.82 4.15997 20.43C6.90997 22.27 11.42 22.27 14.17 20.43C16.59 18.81 16.59 16.17 14.17 14.56C11.43 12.73 6.91997 12.73 4.15997 14.56Z" stroke="#787486" stroke-width="1.5" stroke-linecap="round" stroke-linejoin="round"/>
<path d="M18.34 20C19.06 19.85 19.74 19.56 20.3 19.13C21.86 17.96 21.86 16.03 20.3 14.86C19.75 14.44 19.08 14.16 18.37 14" stroke="#787486" stroke-width="1.5" stroke-linecap="round" stroke-linejoin="round"/>
<path d="M39.2784 5.36364H41.4091L45.1136 14.4091H45.25L48.9545 5.36364H51.0852V17H49.4148V8.57955H49.3068L45.875 16.983H44.4886L41.0568 8.57386H40.9489V17H39.2784V5.36364ZM57.2628 17.1761C56.4029 17.1761 55.6624 16.9924 55.0412 16.625C54.4238 16.2538 53.9465 15.733 53.6094 15.0625C53.276 14.3883 53.1094 13.5985 53.1094 12.6932C53.1094 11.7992 53.276 11.0114 53.6094 10.3295C53.9465 9.64773 54.4162 9.11553 55.0185 8.73295C55.6245 8.35038 56.3329 8.15909 57.1435 8.15909C57.6359 8.15909 58.1132 8.24053 58.5753 8.40341C59.0374 8.56629 59.4522 8.82197 59.8196 9.17045C60.187 9.51894 60.4768 9.97159 60.6889 10.5284C60.901 11.0814 61.0071 11.7538 61.0071 12.5455V13.1477H54.0696V11.875H59.3423C59.3423 11.428 59.2514 11.0322 59.0696 10.6875C58.8878 10.339 58.6321 10.0644 58.3026 9.86364C57.9768 9.66288 57.5942 9.5625 57.1548 9.5625C56.6776 9.5625 56.2609 9.67992 55.9048 9.91477C55.5526 10.1458 55.2798 10.4489 55.0866 10.8239C54.8973 11.1951 54.8026 11.5985 54.8026 12.0341V13.0284C54.8026 13.6117 54.9048 14.108 55.1094 14.517C55.3177 14.9261 55.6075 15.2386 55.9787 15.4545C56.3499 15.6667 56.7836 15.7727 57.2798 15.7727C57.6018 15.7727 57.8954 15.7273 58.1605 15.6364C58.4257 15.5417 58.6548 15.4015 58.848 15.2159C59.0412 15.0303 59.1889 14.8011 59.2912 14.5284L60.8991 14.8182C60.7704 15.2917 60.5393 15.7064 60.206 16.0625C59.8764 16.4148 59.4616 16.6894 58.9616 16.8864C58.4654 17.0795 57.8991 17.1761 57.2628 17.1761ZM62.892 17V8.27273H64.5227V9.69318H64.6307C64.8125 9.21212 65.1098 8.83712 65.5227 8.56818C65.9356 8.29545 66.4299 8.15909 67.0057 8.15909C67.589 8.15909 68.0777 8.29545 68.4716 8.56818C68.8693 8.84091 69.1629 9.21591 69.3523 9.69318H69.4432C69.6515 9.22727 69.983 8.85606 70.4375 8.57955C70.892 8.29924 71.4337 8.15909 72.0625 8.15909C72.8542 8.15909 73.5 8.4072 74 8.90341C74.5038 9.39962 74.7557 10.1477 74.7557 11.1477V17H73.0568V11.3068C73.0568 10.7159 72.8958 10.2879 72.5739 10.0227C72.2519 9.75758 71.8674 9.625 71.4205 9.625C70.8674 9.625 70.4375 9.79545 70.1307 10.1364C69.8239 10.4735 69.6705 10.9072 69.6705 11.4375V17H67.9773V11.1989C67.9773 10.7254 67.8295 10.3447 67.5341 10.0568C67.2386 9.76894 66.8542 9.625 66.3807 9.625C66.0587 9.625 65.7614 9.71023 65.4886 9.88068C65.2197 10.0473 65.0019 10.2803 64.8352 10.5795C64.6723 10.8788 64.5909 11.2254 64.5909 11.6193V17H62.892ZM77.169 17V5.36364H78.8679V9.6875H78.9702C79.0687 9.50568 79.2107 9.29545 79.3963 9.05682C79.5819 8.81818 79.8395 8.60985 80.169 8.43182C80.4986 8.25 80.9342 8.15909 81.4759 8.15909C82.1804 8.15909 82.8092 8.33712 83.3622 8.69318C83.9152 9.04924 84.349 9.5625 84.6634 10.233C84.9815 10.9034 85.1406 11.7102 85.1406 12.6534C85.1406 13.5966 84.9834 14.4053 84.669 15.0795C84.3546 15.75 83.9228 16.267 83.3736 16.6307C82.8243 16.9905 82.1974 17.1705 81.4929 17.1705C80.9626 17.1705 80.5289 17.0814 80.1918 16.9034C79.8584 16.7254 79.5971 16.517 79.4077 16.2784C79.2183 16.0398 79.0724 15.8277 78.9702 15.642H78.8281V17H77.169ZM78.8338 12.6364C78.8338 13.25 78.9228 13.7879 79.1009 14.25C79.2789 14.7121 79.5365 15.0739 79.8736 15.3352C80.2107 15.5928 80.6236 15.7216 81.1122 15.7216C81.6198 15.7216 82.044 15.5871 82.3849 15.3182C82.7259 15.0455 82.9834 14.6761 83.1577 14.2102C83.3357 13.7443 83.4247 13.2197 83.4247 12.6364C83.4247 12.0606 83.3376 11.5436 83.1634 11.0852C82.9929 10.6269 82.7353 10.2652 82.3906 10C82.0497 9.73485 81.6236 9.60227 81.1122 9.60227C80.6198 9.60227 80.2031 9.72917 79.8622 9.98295C79.5251 10.2367 79.2694 10.5909 79.0952 11.0455C78.9209 11.5 78.8338 12.0303 78.8338 12.6364ZM90.8097 17.1761C89.9498 17.1761 89.2093 16.9924 88.5881 16.625C87.9706 16.2538 87.4934 15.733 87.1562 15.0625C86.8229 14.3883 86.6562 13.5985 86.6562 12.6932C86.6562 11.7992 86.8229 11.0114 87.1562 10.3295C87.4934 9.64773 87.9631 9.11553 88.5653 8.73295C89.1714 8.35038 89.8797 8.15909 90.6903 8.15909C91.1828 8.15909 91.66 8.24053 92.1222 8.40341C92.5843 8.56629 92.9991 8.82197 93.3665 9.17045C93.7339 9.51894 94.0237 9.97159 94.2358 10.5284C94.4479 11.0814 94.554 11.7538 94.554 12.5455V13.1477H87.6165V11.875H92.8892C92.8892 11.428 92.7983 11.0322 92.6165 10.6875C92.4347 10.339 92.179 10.0644 91.8494 9.86364C91.5237 9.66288 91.1411 9.5625 90.7017 9.5625C90.2244 9.5625 89.8078 9.67992 89.4517 9.91477C89.0994 10.1458 88.8267 10.4489 88.6335 10.8239C88.4441 11.1951 88.3494 11.5985 88.3494 12.0341V13.0284C88.3494 13.6117 88.4517 14.108 88.6562 14.517C88.8646 14.9261 89.1544 15.2386 89.5256 15.4545C89.8968 15.6667 90.3305 15.7727 90.8267 15.7727C91.1487 15.7727 91.4422 15.7273 91.7074 15.6364C91.9725 15.5417 92.2017 15.4015 92.3949 15.2159C92.5881 15.0303 92.7358 14.8011 92.8381 14.5284L94.446 14.8182C94.3172 15.2917 94.0862 15.7064 93.7528 16.0625C93.4233 16.4148 93.0085 16.6894 92.5085 16.8864C92.0123 17.0795 91.446 17.1761 90.8097 17.1761ZM96.4389 17V8.27273H98.081V9.65909H98.1719C98.331 9.18939 98.6113 8.82008 99.0128 8.55114C99.4181 8.27841 99.8764 8.14205 100.388 8.14205C100.494 8.14205 100.619 8.14583 100.763 8.15341C100.911 8.16098 101.026 8.17045 101.109 8.18182V9.80682C101.041 9.78788 100.92 9.76705 100.746 9.74432C100.571 9.7178 100.397 9.70455 100.223 9.70455C99.8215 9.70455 99.4635 9.78977 99.1491 9.96023C98.8385 10.1269 98.5923 10.3598 98.4105 10.6591C98.2287 10.9545 98.1378 11.2917 98.1378 11.6705V17H96.4389ZM109.119 10.4034L107.58 10.6761C107.515 10.4792 107.413 10.2917 107.273 10.1136C107.136 9.93561 106.951 9.78977 106.716 9.67614C106.481 9.5625 106.188 9.50568 105.835 9.50568C105.354 9.50568 104.953 9.61364 104.631 9.82955C104.309 10.0417 104.148 10.3163 104.148 10.6534C104.148 10.9451 104.256 11.1799 104.472 11.358C104.688 11.536 105.036 11.6818 105.517 11.7955L106.903 12.1136C107.706 12.2992 108.305 12.5852 108.699 12.9716C109.093 13.358 109.29 13.8598 109.29 14.4773C109.29 15 109.138 15.4659 108.835 15.875C108.536 16.2803 108.117 16.5985 107.58 16.8295C107.045 17.0606 106.426 17.1761 105.722 17.1761C104.744 17.1761 103.947 16.9678 103.33 16.5511C102.712 16.1307 102.333 15.5341 102.193 14.7614L103.835 14.5114C103.938 14.9394 104.148 15.2633 104.466 15.483C104.784 15.6989 105.199 15.8068 105.71 15.8068C106.267 15.8068 106.712 15.6913 107.045 15.4602C107.379 15.2254 107.545 14.9394 107.545 14.6023C107.545 14.3295 107.443 14.1004 107.239 13.9148C107.038 13.7292 106.729 13.589 106.312 13.4943L104.835 13.1705C104.021 12.9848 103.419 12.6894 103.028 12.2841C102.642 11.8788 102.449 11.3655 102.449 10.7443C102.449 10.2292 102.593 9.77841 102.881 9.39205C103.169 9.00568 103.566 8.70455 104.074 8.48864C104.581 8.26894 105.163 8.15909 105.818 8.15909C106.761 8.15909 107.504 8.36364 108.045 8.77273C108.587 9.17803 108.945 9.72159 109.119 10.4034Z" fill="#787486"/>
</svg>
