<svg width="116" height="24" viewBox="0 0 116 24" fill="none" xmlns="http://www.w3.org/2000/svg">
<path d="M8.5 19H8C4 19 2 18 2 13V8C2 4 4 2 8 2H16C20 2 22 4 22 8V13C22 17 20 19 16 19H15.5C15.19 19 14.89 19.15 14.7 19.4L13.2 21.4C12.54 22.28 11.46 22.28 10.8 21.4L9.3 19.4C9.14 19.18 8.77 19 8.5 19Z" stroke="#787486" stroke-width="1.5" stroke-miterlimit="10" stroke-linecap="round" stroke-linejoin="round"/>
<path d="M15.9965 11H16.0054" stroke="#787486" stroke-width="2" stroke-linecap="round" stroke-linejoin="round"/>
<path d="M11.9955 11H12.0045" stroke="#787486" stroke-width="2" stroke-linecap="round" stroke-linejoin="round"/>
<path d="M7.99451 11H8.00349" stroke="#787486" stroke-width="2" stroke-linecap="round" stroke-linejoin="round"/>
<path d="M39.2784 5.36364H41.4091L45.1136 14.4091H45.25L48.9545 5.36364H51.0852V17H49.4148V8.57955H49.3068L45.875 16.983H44.4886L41.0568 8.57386H40.9489V17H39.2784V5.36364ZM57.2628 17.1761C56.4029 17.1761 55.6624 16.9924 55.0412 16.625C54.4238 16.2538 53.9465 15.733 53.6094 15.0625C53.276 14.3883 53.1094 13.5985 53.1094 12.6932C53.1094 11.7992 53.276 11.0114 53.6094 10.3295C53.9465 9.64773 54.4162 9.11553 55.0185 8.73295C55.6245 8.35038 56.3329 8.15909 57.1435 8.15909C57.6359 8.15909 58.1132 8.24053 58.5753 8.40341C59.0374 8.56629 59.4522 8.82197 59.8196 9.17045C60.187 9.51894 60.4768 9.97159 60.6889 10.5284C60.901 11.0814 61.0071 11.7538 61.0071 12.5455V13.1477H54.0696V11.875H59.3423C59.3423 11.428 59.2514 11.0322 59.0696 10.6875C58.8878 10.339 58.6321 10.0644 58.3026 9.86364C57.9768 9.66288 57.5942 9.5625 57.1548 9.5625C56.6776 9.5625 56.2609 9.67992 55.9048 9.91477C55.5526 10.1458 55.2798 10.4489 55.0866 10.8239C54.8973 11.1951 54.8026 11.5985 54.8026 12.0341V13.0284C54.8026 13.6117 54.9048 14.108 55.1094 14.517C55.3177 14.9261 55.6075 15.2386 55.9787 15.4545C56.3499 15.6667 56.7836 15.7727 57.2798 15.7727C57.6018 15.7727 57.8954 15.7273 58.1605 15.6364C58.4257 15.5417 58.6548 15.4015 58.848 15.2159C59.0412 15.0303 59.1889 14.8011 59.2912 14.5284L60.8991 14.8182C60.7704 15.2917 60.5393 15.7064 60.206 16.0625C59.8764 16.4148 59.4616 16.6894 58.9616 16.8864C58.4654 17.0795 57.8991 17.1761 57.2628 17.1761ZM69.4318 10.4034L67.892 10.6761C67.8277 10.4792 67.7254 10.2917 67.5852 10.1136C67.4489 9.93561 67.2633 9.78977 67.0284 9.67614C66.7936 9.5625 66.5 9.50568 66.1477 9.50568C65.6667 9.50568 65.2652 9.61364 64.9432 9.82955C64.6212 10.0417 64.4602 10.3163 64.4602 10.6534C64.4602 10.9451 64.5682 11.1799 64.7841 11.358C65 11.536 65.3485 11.6818 65.8295 11.7955L67.2159 12.1136C68.0189 12.2992 68.6174 12.5852 69.0114 12.9716C69.4053 13.358 69.6023 13.8598 69.6023 14.4773C69.6023 15 69.4508 15.4659 69.1477 15.875C68.8485 16.2803 68.4299 16.5985 67.892 16.8295C67.358 17.0606 66.7386 17.1761 66.0341 17.1761C65.0568 17.1761 64.2595 16.9678 63.642 16.5511C63.0246 16.1307 62.6458 15.5341 62.5057 14.7614L64.1477 14.5114C64.25 14.9394 64.4602 15.2633 64.7784 15.483C65.0966 15.6989 65.5114 15.8068 66.0227 15.8068C66.5795 15.8068 67.0246 15.6913 67.358 15.4602C67.6913 15.2254 67.858 14.9394 67.858 14.6023C67.858 14.3295 67.7557 14.1004 67.5511 13.9148C67.3504 13.7292 67.0417 13.589 66.625 13.4943L65.1477 13.1705C64.3333 12.9848 63.7311 12.6894 63.3409 12.2841C62.9545 11.8788 62.7614 11.3655 62.7614 10.7443C62.7614 10.2292 62.9053 9.77841 63.1932 9.39205C63.4811 9.00568 63.8788 8.70455 64.3864 8.48864C64.8939 8.26894 65.4754 8.15909 66.1307 8.15909C67.0739 8.15909 67.8163 8.36364 68.358 8.77273C68.8996 9.17803 69.2576 9.72159 69.4318 10.4034ZM78.0099 10.4034L76.4702 10.6761C76.4058 10.4792 76.3035 10.2917 76.1634 10.1136C76.027 9.93561 75.8414 9.78977 75.6065 9.67614C75.3717 9.5625 75.0781 9.50568 74.7259 9.50568C74.2448 9.50568 73.8433 9.61364 73.5213 9.82955C73.1993 10.0417 73.0384 10.3163 73.0384 10.6534C73.0384 10.9451 73.1463 11.1799 73.3622 11.358C73.5781 11.536 73.9266 11.6818 74.4077 11.7955L75.794 12.1136C76.5971 12.2992 77.1955 12.5852 77.5895 12.9716C77.9834 13.358 78.1804 13.8598 78.1804 14.4773C78.1804 15 78.0289 15.4659 77.7259 15.875C77.4266 16.2803 77.008 16.5985 76.4702 16.8295C75.9361 17.0606 75.3168 17.1761 74.6122 17.1761C73.6349 17.1761 72.8376 16.9678 72.2202 16.5511C71.6027 16.1307 71.224 15.5341 71.0838 14.7614L72.7259 14.5114C72.8281 14.9394 73.0384 15.2633 73.3565 15.483C73.6747 15.6989 74.0895 15.8068 74.6009 15.8068C75.1577 15.8068 75.6027 15.6913 75.9361 15.4602C76.2694 15.2254 76.4361 14.9394 76.4361 14.6023C76.4361 14.3295 76.3338 14.1004 76.1293 13.9148C75.9285 13.7292 75.6198 13.589 75.2031 13.4943L73.7259 13.1705C72.9115 12.9848 72.3092 12.6894 71.919 12.2841C71.5327 11.8788 71.3395 11.3655 71.3395 10.7443C71.3395 10.2292 71.4834 9.77841 71.7713 9.39205C72.0592 9.00568 72.4569 8.70455 72.9645 8.48864C73.4721 8.26894 74.0535 8.15909 74.7088 8.15909C75.652 8.15909 76.3944 8.36364 76.9361 8.77273C77.4777 9.17803 77.8357 9.72159 78.0099 10.4034ZM82.5881 17.1932C82.035 17.1932 81.535 17.0909 81.0881 16.8864C80.6411 16.678 80.2869 16.3769 80.0256 15.983C79.768 15.589 79.6392 15.1061 79.6392 14.5341C79.6392 14.0417 79.7339 13.6364 79.9233 13.3182C80.1127 13 80.3684 12.7481 80.6903 12.5625C81.0123 12.3769 81.3722 12.2367 81.7699 12.142C82.1676 12.0473 82.5729 11.9754 82.9858 11.9261C83.5085 11.8655 83.9328 11.8163 84.2585 11.7784C84.5843 11.7367 84.821 11.6705 84.9688 11.5795C85.1165 11.4886 85.1903 11.3409 85.1903 11.1364V11.0966C85.1903 10.6004 85.0502 10.2159 84.7699 9.94318C84.4934 9.67045 84.0805 9.53409 83.5312 9.53409C82.9593 9.53409 82.5085 9.66098 82.179 9.91477C81.8532 10.1648 81.6278 10.4432 81.5028 10.75L79.9062 10.3864C80.0956 9.85606 80.3722 9.42803 80.7358 9.10227C81.1032 8.77273 81.5256 8.53409 82.0028 8.38636C82.4801 8.23485 82.982 8.15909 83.5085 8.15909C83.857 8.15909 84.2263 8.20076 84.6165 8.28409C85.0104 8.36364 85.3778 8.51136 85.7188 8.72727C86.0634 8.94318 86.3456 9.25189 86.5653 9.65341C86.785 10.0511 86.8949 10.5682 86.8949 11.2045V17H85.2358V15.8068H85.1676C85.0578 16.0265 84.893 16.2424 84.6733 16.4545C84.4536 16.6667 84.1714 16.8428 83.8267 16.983C83.482 17.1231 83.0691 17.1932 82.5881 17.1932ZM82.9574 15.8295C83.4271 15.8295 83.8286 15.7367 84.1619 15.5511C84.4991 15.3655 84.7547 15.1231 84.929 14.8239C85.107 14.5208 85.196 14.197 85.196 13.8523V12.7273C85.1354 12.7879 85.018 12.8447 84.8438 12.8977C84.6733 12.947 84.4782 12.9905 84.2585 13.0284C84.0388 13.0625 83.8248 13.0947 83.6165 13.125C83.4081 13.1515 83.2339 13.1742 83.0938 13.1932C82.7642 13.2348 82.4631 13.3049 82.1903 13.4034C81.9214 13.5019 81.7055 13.6439 81.5426 13.8295C81.3835 14.0114 81.304 14.2538 81.304 14.5568C81.304 14.9773 81.4593 15.2955 81.7699 15.5114C82.0805 15.7235 82.4763 15.8295 82.9574 15.8295ZM92.8168 20.4545C92.1236 20.4545 91.527 20.3636 91.027 20.1818C90.5308 20 90.1255 19.7595 89.8111 19.4602C89.4967 19.161 89.2618 18.8333 89.1065 18.4773L90.5668 17.875C90.669 18.0417 90.8054 18.2178 90.9759 18.4034C91.1501 18.5928 91.3849 18.7538 91.6804 18.8864C91.9796 19.0189 92.3641 19.0852 92.8338 19.0852C93.4777 19.0852 94.0099 18.928 94.4304 18.6136C94.8509 18.303 95.0611 17.8068 95.0611 17.125V15.4091H94.9531C94.8509 15.5947 94.7031 15.8011 94.5099 16.0284C94.3205 16.2557 94.0592 16.4527 93.7259 16.6193C93.3925 16.786 92.9588 16.8693 92.4247 16.8693C91.7353 16.8693 91.1141 16.7083 90.5611 16.3864C90.0118 16.0606 89.5762 15.5814 89.2543 14.9489C88.9361 14.3125 88.777 13.5303 88.777 12.6023C88.777 11.6742 88.9342 10.8788 89.2486 10.2159C89.5668 9.55303 90.0024 9.04545 90.5554 8.69318C91.1084 8.33712 91.7353 8.15909 92.4361 8.15909C92.9777 8.15909 93.4152 8.25 93.7486 8.43182C94.0819 8.60985 94.3414 8.81818 94.527 9.05682C94.7164 9.29545 94.8622 9.50568 94.9645 9.6875H95.0895V8.27273H96.7543V17.1932C96.7543 17.9432 96.58 18.5587 96.2315 19.0398C95.883 19.5208 95.4115 19.8769 94.8168 20.108C94.2259 20.339 93.5592 20.4545 92.8168 20.4545ZM92.7997 15.4602C93.2884 15.4602 93.7012 15.3466 94.0384 15.1193C94.3793 14.8883 94.6368 14.5587 94.8111 14.1307C94.9891 13.6989 95.0781 13.1818 95.0781 12.5795C95.0781 11.9924 94.991 11.4754 94.8168 11.0284C94.6425 10.5814 94.3868 10.233 94.0497 9.98295C93.7126 9.72917 93.2959 9.60227 92.7997 9.60227C92.2884 9.60227 91.8622 9.73485 91.5213 10C91.1804 10.2614 90.9228 10.6174 90.7486 11.0682C90.5781 11.5189 90.4929 12.0227 90.4929 12.5795C90.4929 13.1515 90.58 13.6534 90.7543 14.0852C90.9285 14.517 91.1861 14.8542 91.527 15.0966C91.8717 15.339 92.2959 15.4602 92.7997 15.4602ZM102.794 17.1761C101.934 17.1761 101.194 16.9924 100.572 16.625C99.955 16.2538 99.4777 15.733 99.1406 15.0625C98.8073 14.3883 98.6406 13.5985 98.6406 12.6932C98.6406 11.7992 98.8073 11.0114 99.1406 10.3295C99.4777 9.64773 99.9474 9.11553 100.55 8.73295C101.156 8.35038 101.864 8.15909 102.675 8.15909C103.167 8.15909 103.644 8.24053 104.107 8.40341C104.569 8.56629 104.983 8.82197 105.351 9.17045C105.718 9.51894 106.008 9.97159 106.22 10.5284C106.432 11.0814 106.538 11.7538 106.538 12.5455V13.1477H99.6009V11.875H104.874C104.874 11.428 104.783 11.0322 104.601 10.6875C104.419 10.339 104.163 10.0644 103.834 9.86364C103.508 9.66288 103.125 9.5625 102.686 9.5625C102.209 9.5625 101.792 9.67992 101.436 9.91477C101.084 10.1458 100.811 10.4489 100.618 10.8239C100.429 11.1951 100.334 11.5985 100.334 12.0341V13.0284C100.334 13.6117 100.436 14.108 100.641 14.517C100.849 14.9261 101.139 15.2386 101.51 15.4545C101.881 15.6667 102.315 15.7727 102.811 15.7727C103.133 15.7727 103.427 15.7273 103.692 15.6364C103.957 15.5417 104.186 15.4015 104.379 15.2159C104.572 15.0303 104.72 14.8011 104.822 14.5284L106.43 14.8182C106.302 15.2917 106.071 15.7064 105.737 16.0625C105.408 16.4148 104.993 16.6894 104.493 16.8864C103.997 17.0795 103.43 17.1761 102.794 17.1761ZM114.963 10.4034L113.423 10.6761C113.359 10.4792 113.257 10.2917 113.116 10.1136C112.98 9.93561 112.795 9.78977 112.56 9.67614C112.325 9.5625 112.031 9.50568 111.679 9.50568C111.198 9.50568 110.796 9.61364 110.474 9.82955C110.152 10.0417 109.991 10.3163 109.991 10.6534C109.991 10.9451 110.099 11.1799 110.315 11.358C110.531 11.536 110.88 11.6818 111.361 11.7955L112.747 12.1136C113.55 12.2992 114.149 12.5852 114.543 12.9716C114.937 13.358 115.134 13.8598 115.134 14.4773C115.134 15 114.982 15.4659 114.679 15.875C114.38 16.2803 113.961 16.5985 113.423 16.8295C112.889 17.0606 112.27 17.1761 111.565 17.1761C110.588 17.1761 109.791 16.9678 109.173 16.5511C108.556 16.1307 108.177 15.5341 108.037 14.7614L109.679 14.5114C109.781 14.9394 109.991 15.2633 110.31 15.483C110.628 15.6989 111.043 15.8068 111.554 15.8068C112.111 15.8068 112.556 15.6913 112.889 15.4602C113.223 15.2254 113.389 14.9394 113.389 14.6023C113.389 14.3295 113.287 14.1004 113.082 13.9148C112.882 13.7292 112.573 13.589 112.156 13.4943L110.679 13.1705C109.865 12.9848 109.262 12.6894 108.872 12.2841C108.486 11.8788 108.293 11.3655 108.293 10.7443C108.293 10.2292 108.437 9.77841 108.724 9.39205C109.012 9.00568 109.41 8.70455 109.918 8.48864C110.425 8.26894 111.007 8.15909 111.662 8.15909C112.605 8.15909 113.348 8.36364 113.889 8.77273C114.431 9.17803 114.789 9.72159 114.963 10.4034Z" fill="#787486"/>
</svg>
