<svg width="103" height="24" viewBox="0 0 103 24" fill="none" xmlns="http://www.w3.org/2000/svg">
<path d="M12 15C13.6569 15 15 13.6569 15 12C15 10.3431 13.6569 9 12 9C10.3431 9 9 10.3431 9 12C9 13.6569 10.3431 15 12 15Z" stroke="#787486" stroke-width="1.5" stroke-miterlimit="10" stroke-linecap="round" stroke-linejoin="round"/>
<path d="M2 12.88V11.12C2 10.08 2.85 9.22 3.9 9.22C5.71 9.22 6.45 7.94 5.54 6.37C5.02 5.47 5.33 4.3 6.24 3.78L7.97 2.79C8.76 2.32 9.78 2.6 10.25 3.39L10.36 3.58C11.26 5.15 12.74 5.15 13.65 3.58L13.76 3.39C14.23 2.6 15.25 2.32 16.04 2.79L17.77 3.78C18.68 4.3 18.99 5.47 18.47 6.37C17.56 7.94 18.3 9.22 20.11 9.22C21.15 9.22 22.01 10.07 22.01 11.12V12.88C22.01 13.92 21.16 14.78 20.11 14.78C18.3 14.78 17.56 16.06 18.47 17.63C18.99 18.54 18.68 19.7 17.77 20.22L16.04 21.21C15.25 21.68 14.23 21.4 13.76 20.61L13.65 20.42C12.75 18.85 11.27 18.85 10.36 20.42L10.25 20.61C9.78 21.4 8.76 21.68 7.97 21.21L6.24 20.22C5.33 19.7 5.02 18.53 5.54 17.63C6.45 16.06 5.71 14.78 3.9 14.78C2.85 14.78 2 13.92 2 12.88Z" stroke="#787486" stroke-width="1.5" stroke-miterlimit="10" stroke-linecap="round" stroke-linejoin="round"/>
<path d="M46.625 8.42045C46.5644 7.88258 46.3144 7.46591 45.875 7.17045C45.4356 6.87121 44.8826 6.72159 44.2159 6.72159C43.7386 6.72159 43.3258 6.79735 42.9773 6.94886C42.6288 7.09659 42.358 7.30114 42.1648 7.5625C41.9754 7.82008 41.8807 8.11364 41.8807 8.44318C41.8807 8.7197 41.9451 8.95833 42.0739 9.15909C42.2064 9.35985 42.3788 9.52841 42.5909 9.66477C42.8068 9.79735 43.0379 9.90909 43.2841 10C43.5303 10.0871 43.767 10.1591 43.9943 10.2159L45.1307 10.5114C45.5019 10.6023 45.8826 10.7254 46.2727 10.8807C46.6629 11.036 47.0246 11.2405 47.358 11.4943C47.6913 11.7481 47.9602 12.0625 48.1648 12.4375C48.3731 12.8125 48.4773 13.2614 48.4773 13.7841C48.4773 14.4432 48.3068 15.0284 47.9659 15.5398C47.6288 16.0511 47.1383 16.4545 46.4943 16.75C45.8542 17.0455 45.0795 17.1932 44.1705 17.1932C43.2992 17.1932 42.5455 17.0549 41.9091 16.7784C41.2727 16.5019 40.7746 16.1098 40.4148 15.6023C40.0549 15.0909 39.8561 14.4848 39.8182 13.7841H41.5795C41.6136 14.2045 41.75 14.5549 41.9886 14.8352C42.2311 15.1117 42.5398 15.3182 42.9148 15.4545C43.2936 15.5871 43.7083 15.6534 44.1591 15.6534C44.6553 15.6534 45.0966 15.5758 45.483 15.4205C45.8731 15.2614 46.1799 15.0417 46.4034 14.7614C46.6269 14.4773 46.7386 14.1458 46.7386 13.767C46.7386 13.4223 46.6402 13.1402 46.4432 12.9205C46.25 12.7008 45.9867 12.5189 45.6534 12.375C45.3239 12.2311 44.9508 12.1042 44.5341 11.9943L43.1591 11.6193C42.2273 11.3655 41.4886 10.9924 40.9432 10.5C40.4015 10.0076 40.1307 9.35606 40.1307 8.54545C40.1307 7.875 40.3125 7.28977 40.6761 6.78977C41.0398 6.28977 41.5322 5.90151 42.1534 5.625C42.7746 5.3447 43.4754 5.20455 44.2557 5.20455C45.0436 5.20455 45.7386 5.3428 46.3409 5.61932C46.947 5.89583 47.4242 6.27652 47.7727 6.76136C48.1212 7.24242 48.303 7.79545 48.3182 8.42045H46.625ZM54.2003 17.1761C53.3404 17.1761 52.5999 16.9924 51.9787 16.625C51.3613 16.2538 50.884 15.733 50.5469 15.0625C50.2135 14.3883 50.0469 13.5985 50.0469 12.6932C50.0469 11.7992 50.2135 11.0114 50.5469 10.3295C50.884 9.64773 51.3537 9.11553 51.956 8.73295C52.562 8.35038 53.2704 8.15909 54.081 8.15909C54.5734 8.15909 55.0507 8.24053 55.5128 8.40341C55.9749 8.56629 56.3897 8.82197 56.7571 9.17045C57.1245 9.51894 57.4143 9.97159 57.6264 10.5284C57.8385 11.0814 57.9446 11.7538 57.9446 12.5455V13.1477H51.0071V11.875H56.2798C56.2798 11.428 56.1889 11.0322 56.0071 10.6875C55.8253 10.339 55.5696 10.0644 55.2401 9.86364C54.9143 9.66288 54.5317 9.5625 54.0923 9.5625C53.6151 9.5625 53.1984 9.67992 52.8423 9.91477C52.4901 10.1458 52.2173 10.4489 52.0241 10.8239C51.8348 11.1951 51.7401 11.5985 51.7401 12.0341V13.0284C51.7401 13.6117 51.8423 14.108 52.0469 14.517C52.2552 14.9261 52.545 15.2386 52.9162 15.4545C53.2874 15.6667 53.7211 15.7727 54.2173 15.7727C54.5393 15.7727 54.8329 15.7273 55.098 15.6364C55.3632 15.5417 55.5923 15.4015 55.7855 15.2159C55.9787 15.0303 56.1264 14.8011 56.2287 14.5284L57.8366 14.8182C57.7079 15.2917 57.4768 15.7064 57.1435 16.0625C56.8139 16.4148 56.3991 16.6894 55.8991 16.8864C55.4029 17.0795 54.8366 17.1761 54.2003 17.1761ZM63.9034 8.27273V9.63636H59.1364V8.27273H63.9034ZM60.4148 6.18182H62.1136V14.4375C62.1136 14.767 62.1629 15.0152 62.2614 15.1818C62.3598 15.3447 62.4867 15.4564 62.642 15.517C62.8011 15.5739 62.9735 15.6023 63.1591 15.6023C63.2955 15.6023 63.4148 15.5928 63.517 15.5739C63.6193 15.5549 63.6989 15.5398 63.7557 15.5284L64.0625 16.9318C63.964 16.9697 63.8239 17.0076 63.642 17.0455C63.4602 17.0871 63.233 17.1098 62.9602 17.1136C62.5133 17.1212 62.0966 17.0417 61.7102 16.875C61.3239 16.7083 61.0114 16.4508 60.7727 16.1023C60.5341 15.7538 60.4148 15.3163 60.4148 14.7898V6.18182ZM69.8565 8.27273V9.63636H65.0895V8.27273H69.8565ZM66.3679 6.18182H68.0668V14.4375C68.0668 14.767 68.116 15.0152 68.2145 15.1818C68.313 15.3447 68.4399 15.4564 68.5952 15.517C68.7543 15.5739 68.9266 15.6023 69.1122 15.6023C69.2486 15.6023 69.3679 15.5928 69.4702 15.5739C69.5724 15.5549 69.652 15.5398 69.7088 15.5284L70.0156 16.9318C69.9171 16.9697 69.777 17.0076 69.5952 17.0455C69.4134 17.0871 69.1861 17.1098 68.9134 17.1136C68.4664 17.1212 68.0497 17.0417 67.6634 16.875C67.277 16.7083 66.9645 16.4508 66.7259 16.1023C66.4872 15.7538 66.3679 15.3163 66.3679 14.7898V6.18182ZM71.7358 17V8.27273H73.4347V17H71.7358ZM72.5938 6.92614C72.2983 6.92614 72.0445 6.82765 71.8324 6.63068C71.6241 6.42992 71.5199 6.19129 71.5199 5.91477C71.5199 5.63447 71.6241 5.39583 71.8324 5.19886C72.0445 4.99811 72.2983 4.89773 72.5938 4.89773C72.8892 4.89773 73.1411 4.99811 73.3494 5.19886C73.5616 5.39583 73.6676 5.63447 73.6676 5.91477C73.6676 6.19129 73.5616 6.42992 73.3494 6.63068C73.1411 6.82765 72.8892 6.92614 72.5938 6.92614ZM77.419 11.8182V17H75.7202V8.27273H77.3509V9.69318H77.4588C77.6596 9.23106 77.974 8.85985 78.402 8.57955C78.8338 8.29924 79.3774 8.15909 80.0327 8.15909C80.6274 8.15909 81.1482 8.28409 81.5952 8.53409C82.0421 8.7803 82.3887 9.14773 82.6349 9.63636C82.8812 10.125 83.0043 10.7292 83.0043 11.4489V17H81.3054V11.6534C81.3054 11.0208 81.1406 10.5265 80.8111 10.1705C80.4815 9.81061 80.0289 9.63068 79.4531 9.63068C79.0592 9.63068 78.7088 9.71591 78.402 9.88636C78.099 10.0568 77.8584 10.3068 77.6804 10.6364C77.5062 10.9621 77.419 11.3561 77.419 11.8182ZM88.9418 20.4545C88.2486 20.4545 87.652 20.3636 87.152 20.1818C86.6558 20 86.2505 19.7595 85.9361 19.4602C85.6217 19.161 85.3868 18.8333 85.2315 18.4773L86.6918 17.875C86.794 18.0417 86.9304 18.2178 87.1009 18.4034C87.2751 18.5928 87.5099 18.7538 87.8054 18.8864C88.1046 19.0189 88.4891 19.0852 88.9588 19.0852C89.6027 19.0852 90.1349 18.928 90.5554 18.6136C90.9759 18.303 91.1861 17.8068 91.1861 17.125V15.4091H91.0781C90.9759 15.5947 90.8281 15.8011 90.6349 16.0284C90.4455 16.2557 90.1842 16.4527 89.8509 16.6193C89.5175 16.786 89.0838 16.8693 88.5497 16.8693C87.8603 16.8693 87.2391 16.7083 86.6861 16.3864C86.1368 16.0606 85.7012 15.5814 85.3793 14.9489C85.0611 14.3125 84.902 13.5303 84.902 12.6023C84.902 11.6742 85.0592 10.8788 85.3736 10.2159C85.6918 9.55303 86.1274 9.04545 86.6804 8.69318C87.2334 8.33712 87.8603 8.15909 88.5611 8.15909C89.1027 8.15909 89.5402 8.25 89.8736 8.43182C90.2069 8.60985 90.4664 8.81818 90.652 9.05682C90.8414 9.29545 90.9872 9.50568 91.0895 9.6875H91.2145V8.27273H92.8793V17.1932C92.8793 17.9432 92.705 18.5587 92.3565 19.0398C92.008 19.5208 91.5365 19.8769 90.9418 20.108C90.3509 20.339 89.6842 20.4545 88.9418 20.4545ZM88.9247 15.4602C89.4134 15.4602 89.8262 15.3466 90.1634 15.1193C90.5043 14.8883 90.7618 14.5587 90.9361 14.1307C91.1141 13.6989 91.2031 13.1818 91.2031 12.5795C91.2031 11.9924 91.116 11.4754 90.9418 11.0284C90.7675 10.5814 90.5118 10.233 90.1747 9.98295C89.8376 9.72917 89.4209 9.60227 88.9247 9.60227C88.4134 9.60227 87.9872 9.73485 87.6463 10C87.3054 10.2614 87.0478 10.6174 86.8736 11.0682C86.7031 11.5189 86.6179 12.0227 86.6179 12.5795C86.6179 13.1515 86.705 13.6534 86.8793 14.0852C87.0535 14.517 87.3111 14.8542 87.652 15.0966C87.9967 15.339 88.4209 15.4602 88.9247 15.4602ZM101.697 10.4034L100.158 10.6761C100.093 10.4792 99.991 10.2917 99.8509 10.1136C99.7145 9.93561 99.5289 9.78977 99.294 9.67614C99.0592 9.5625 98.7656 9.50568 98.4134 9.50568C97.9323 9.50568 97.5308 9.61364 97.2088 9.82955C96.8868 10.0417 96.7259 10.3163 96.7259 10.6534C96.7259 10.9451 96.8338 11.1799 97.0497 11.358C97.2656 11.536 97.6141 11.6818 98.0952 11.7955L99.4815 12.1136C100.285 12.2992 100.883 12.5852 101.277 12.9716C101.671 13.358 101.868 13.8598 101.868 14.4773C101.868 15 101.716 15.4659 101.413 15.875C101.114 16.2803 100.696 16.5985 100.158 16.8295C99.6236 17.0606 99.0043 17.1761 98.2997 17.1761C97.3224 17.1761 96.5251 16.9678 95.9077 16.5511C95.2902 16.1307 94.9115 15.5341 94.7713 14.7614L96.4134 14.5114C96.5156 14.9394 96.7259 15.2633 97.044 15.483C97.3622 15.6989 97.777 15.8068 98.2884 15.8068C98.8452 15.8068 99.2902 15.6913 99.6236 15.4602C99.9569 15.2254 100.124 14.9394 100.124 14.6023C100.124 14.3295 100.021 14.1004 99.8168 13.9148C99.616 13.7292 99.3073 13.589 98.8906 13.4943L97.4134 13.1705C96.599 12.9848 95.9967 12.6894 95.6065 12.2841C95.2202 11.8788 95.027 11.3655 95.027 10.7443C95.027 10.2292 95.1709 9.77841 95.4588 9.39205C95.7467 9.00568 96.1444 8.70455 96.652 8.48864C97.1596 8.26894 97.741 8.15909 98.3963 8.15909C99.3395 8.15909 100.082 8.36364 100.624 8.77273C101.165 9.17803 101.523 9.72159 101.697 10.4034Z" fill="#787486"/>
</svg>
