<svg width="83" height="24" viewBox="0 0 83 24" fill="none" xmlns="http://www.w3.org/2000/svg">
<path d="M12.37 8.88H17.62" stroke="#787486" stroke-width="1.5" stroke-linecap="round" stroke-linejoin="round"/>
<path d="M6.38 8.88L7.13 9.63L9.38 7.38" stroke="#787486" stroke-width="1.5" stroke-linecap="round" stroke-linejoin="round"/>
<path d="M12.37 15.88H17.62" stroke="#787486" stroke-width="1.5" stroke-linecap="round" stroke-linejoin="round"/>
<path d="M6.38 15.88L7.13 16.63L9.38 14.38" stroke="#787486" stroke-width="1.5" stroke-linecap="round" stroke-linejoin="round"/>
<path d="M9 22H15C20 22 22 20 22 15V9C22 4 20 2 15 2H9C4 2 2 4 2 9V15C2 20 4 22 9 22Z" stroke="#787486" stroke-width="1.5" stroke-linecap="round" stroke-linejoin="round"/>
<path d="M38.7045 6.875V5.36364H47.7102V6.875H44.0795V17H42.3295V6.875H38.7045ZM50.9162 17.1932C50.3632 17.1932 49.8632 17.0909 49.4162 16.8864C48.9692 16.678 48.6151 16.3769 48.3537 15.983C48.0961 15.589 47.9673 15.1061 47.9673 14.5341C47.9673 14.0417 48.062 13.6364 48.2514 13.3182C48.4408 13 48.6965 12.7481 49.0185 12.5625C49.3404 12.3769 49.7003 12.2367 50.098 12.142C50.4957 12.0473 50.901 11.9754 51.3139 11.9261C51.8366 11.8655 52.2609 11.8163 52.5866 11.7784C52.9124 11.7367 53.1491 11.6705 53.2969 11.5795C53.4446 11.4886 53.5185 11.3409 53.5185 11.1364V11.0966C53.5185 10.6004 53.3783 10.2159 53.098 9.94318C52.8215 9.67045 52.4086 9.53409 51.8594 9.53409C51.2874 9.53409 50.8366 9.66098 50.5071 9.91477C50.1813 10.1648 49.956 10.4432 49.831 10.75L48.2344 10.3864C48.4238 9.85606 48.7003 9.42803 49.0639 9.10227C49.4313 8.77273 49.8537 8.53409 50.331 8.38636C50.8082 8.23485 51.3101 8.15909 51.8366 8.15909C52.1851 8.15909 52.5545 8.20076 52.9446 8.28409C53.3385 8.36364 53.706 8.51136 54.0469 8.72727C54.3916 8.94318 54.6738 9.25189 54.8935 9.65341C55.1132 10.0511 55.223 10.5682 55.223 11.2045V17H53.5639V15.8068H53.4957C53.3859 16.0265 53.2211 16.2424 53.0014 16.4545C52.7817 16.6667 52.4995 16.8428 52.1548 16.983C51.8101 17.1231 51.3973 17.1932 50.9162 17.1932ZM51.2855 15.8295C51.7552 15.8295 52.1567 15.7367 52.4901 15.5511C52.8272 15.3655 53.0829 15.1231 53.2571 14.8239C53.4351 14.5208 53.5241 14.197 53.5241 13.8523V12.7273C53.4635 12.7879 53.3461 12.8447 53.1719 12.8977C53.0014 12.947 52.8063 12.9905 52.5866 13.0284C52.367 13.0625 52.1529 13.0947 51.9446 13.125C51.7363 13.1515 51.562 13.1742 51.4219 13.1932C51.0923 13.2348 50.7912 13.3049 50.5185 13.4034C50.2495 13.5019 50.0336 13.6439 49.8707 13.8295C49.7116 14.0114 49.6321 14.2538 49.6321 14.5568C49.6321 14.9773 49.7874 15.2955 50.098 15.5114C50.4086 15.7235 50.8045 15.8295 51.2855 15.8295ZM64.0256 10.4034L62.4858 10.6761C62.4214 10.4792 62.3191 10.2917 62.179 10.1136C62.0426 9.93561 61.857 9.78977 61.6222 9.67614C61.3873 9.5625 61.0938 9.50568 60.7415 9.50568C60.2604 9.50568 59.8589 9.61364 59.5369 9.82955C59.215 10.0417 59.054 10.3163 59.054 10.6534C59.054 10.9451 59.1619 11.1799 59.3778 11.358C59.5938 11.536 59.9422 11.6818 60.4233 11.7955L61.8097 12.1136C62.6127 12.2992 63.2112 12.5852 63.6051 12.9716C63.9991 13.358 64.196 13.8598 64.196 14.4773C64.196 15 64.0445 15.4659 63.7415 15.875C63.4422 16.2803 63.0237 16.5985 62.4858 16.8295C61.9517 17.0606 61.3324 17.1761 60.6278 17.1761C59.6506 17.1761 58.8532 16.9678 58.2358 16.5511C57.6184 16.1307 57.2396 15.5341 57.0994 14.7614L58.7415 14.5114C58.8438 14.9394 59.054 15.2633 59.3722 15.483C59.6903 15.6989 60.1051 15.8068 60.6165 15.8068C61.1733 15.8068 61.6184 15.6913 61.9517 15.4602C62.285 15.2254 62.4517 14.9394 62.4517 14.6023C62.4517 14.3295 62.3494 14.1004 62.1449 13.9148C61.9441 13.7292 61.6354 13.589 61.2188 13.4943L59.7415 13.1705C58.9271 12.9848 58.3248 12.6894 57.9347 12.2841C57.5483 11.8788 57.3551 11.3655 57.3551 10.7443C57.3551 10.2292 57.4991 9.77841 57.7869 9.39205C58.0748 9.00568 58.4725 8.70455 58.9801 8.48864C59.4877 8.26894 60.0691 8.15909 60.7244 8.15909C61.6676 8.15909 62.41 8.36364 62.9517 8.77273C63.4934 9.17803 63.8513 9.72159 64.0256 10.4034ZM67.6264 14.0398L67.6151 11.9659H67.9105L71.3878 8.27273H73.4219L69.456 12.4773H69.1889L67.6264 14.0398ZM66.0639 17V5.36364H67.7628V17H66.0639ZM71.5753 17L68.4503 12.8523L69.6207 11.6648L73.6605 17H71.5753ZM81.5099 10.4034L79.9702 10.6761C79.9058 10.4792 79.8035 10.2917 79.6634 10.1136C79.527 9.93561 79.3414 9.78977 79.1065 9.67614C78.8717 9.5625 78.5781 9.50568 78.2259 9.50568C77.7448 9.50568 77.3433 9.61364 77.0213 9.82955C76.6993 10.0417 76.5384 10.3163 76.5384 10.6534C76.5384 10.9451 76.6463 11.1799 76.8622 11.358C77.0781 11.536 77.4266 11.6818 77.9077 11.7955L79.294 12.1136C80.0971 12.2992 80.6955 12.5852 81.0895 12.9716C81.4834 13.358 81.6804 13.8598 81.6804 14.4773C81.6804 15 81.5289 15.4659 81.2259 15.875C80.9266 16.2803 80.508 16.5985 79.9702 16.8295C79.4361 17.0606 78.8168 17.1761 78.1122 17.1761C77.1349 17.1761 76.3376 16.9678 75.7202 16.5511C75.1027 16.1307 74.724 15.5341 74.5838 14.7614L76.2259 14.5114C76.3281 14.9394 76.5384 15.2633 76.8565 15.483C77.1747 15.6989 77.5895 15.8068 78.1009 15.8068C78.6577 15.8068 79.1027 15.6913 79.4361 15.4602C79.7694 15.2254 79.9361 14.9394 79.9361 14.6023C79.9361 14.3295 79.8338 14.1004 79.6293 13.9148C79.4285 13.7292 79.1198 13.589 78.7031 13.4943L77.2259 13.1705C76.4115 12.9848 75.8092 12.6894 75.419 12.2841C75.0327 11.8788 74.8395 11.3655 74.8395 10.7443C74.8395 10.2292 74.9834 9.77841 75.2713 9.39205C75.5592 9.00568 75.9569 8.70455 76.4645 8.48864C76.9721 8.26894 77.5535 8.15909 78.2088 8.15909C79.152 8.15909 79.8944 8.36364 80.4361 8.77273C80.9777 9.17803 81.3357 9.72159 81.5099 10.4034Z" fill="#787486"/>
</svg>
